<svg xmlns="http://www.w3.org/2000/svg" width="24" height="24" viewBox="0 0 24 24" fill="none">
  <g clip-path="url(#clip0_1103_21696)">
    <path d="M3.51562 5.71875C4.55116 5.71875 5.39062 4.87928 5.39062 3.84375C5.39062 2.80822 4.55116 1.96875 3.51562 1.96875C2.48009 1.96875 1.64062 2.80822 1.64062 3.84375C1.64062 4.87928 2.48009 5.71875 3.51562 5.71875Z" fill="white" fill-opacity="0.6"/>
    <path d="M7.03125 9.70313V8.76563C7.03125 7.72411 6.57558 6.78736 5.85361 6.14307C5.25797 6.7486 4.43006 7.125 3.51562 7.125C2.60119 7.125 1.77328 6.7486 1.17764 6.14307C0.455672 6.78736 0 7.72411 0 8.76563V9.70313C0 10.0914 0.314812 10.4063 0.703125 10.4063H6.32812C6.71644 10.4063 7.03125 10.0914 7.03125 9.70313Z" fill="white" fill-opacity="0.6"/>
    <path d="M12 3.75C13.0355 3.75 13.875 2.91053 13.875 1.875C13.875 0.839466 13.0355 0 12 0C10.9645 0 10.125 0.839466 10.125 1.875C10.125 2.91053 10.9645 3.75 12 3.75Z" fill="white" fill-opacity="0.6"/>
    <path d="M9.1875 8.4375H14.8125C15.2008 8.4375 15.5156 8.12269 15.5156 7.73438V6.79688C15.5156 5.75536 15.06 4.81861 14.338 4.17432C13.7423 4.77985 12.9144 5.15625 12 5.15625C11.0856 5.15625 10.2577 4.77985 9.66202 4.17432C8.94005 4.81861 8.48438 5.75536 8.48438 6.79688V7.73438C8.48438 8.12269 8.79919 8.4375 9.1875 8.4375Z" fill="white" fill-opacity="0.6"/>
    <path d="M20.4844 5.71875C21.5199 5.71875 22.3594 4.87928 22.3594 3.84375C22.3594 2.80822 21.5199 1.96875 20.4844 1.96875C19.4488 1.96875 18.6094 2.80822 18.6094 3.84375C18.6094 4.87928 19.4488 5.71875 20.4844 5.71875Z" fill="white" fill-opacity="0.6"/>
    <path d="M22.8224 6.14307C22.2267 6.7486 21.3988 7.125 20.4844 7.125C19.5699 7.125 18.742 6.7486 18.1464 6.14307C17.4244 6.78736 16.9688 7.72411 16.9688 8.76563V9.70313C16.9688 10.0914 17.2836 10.4063 17.6719 10.4063H23.2969C23.6852 10.4063 24 10.0914 24 9.70313V8.76563C24 7.72411 23.5443 6.78736 22.8224 6.14307Z" fill="white" fill-opacity="0.6"/>
    <path d="M5.20312 12.0469V14.1562H8.95312V12.0469C8.95312 11.6586 8.63831 11.3438 8.25 11.3438H5.90625C5.51794 11.3438 5.20312 11.6586 5.20312 12.0469Z" fill="white" fill-opacity="0.6"/>
    <path d="M18.0938 11.3438H15.75C15.3617 11.3438 15.0469 11.6586 15.0469 12.0469V14.1562H18.7969V12.0469C18.7969 11.6586 18.4821 11.3438 18.0938 11.3438Z" fill="white" fill-opacity="0.6"/>
    <path d="M15.0469 17.2031C15.0469 18.8858 13.6827 20.25 12 20.25C10.3172 20.25 8.95312 18.8858 8.95312 17.2031V15.5625H5.20312V17.2031C5.20312 20.9569 8.2462 24 12 24C15.7538 24 18.7969 20.9569 18.7969 17.2031V15.5625H15.0469V17.2031Z" fill="white" fill-opacity="0.6"/>
  </g>
  <defs>
    <clipPath id="clip0_1103_21696">
      <rect width="24" height="24" fill="white"/>
    </clipPath>
  </defs>
</svg>