<svg xmlns="http://www.w3.org/2000/svg" width="24" height="24" viewBox="0 0 24 24" fill="none">
  <path d="M23.5308 6.01663L12.234 2.0308C12.0826 1.97736 11.9175 1.97736 11.7661 2.0308L0.469219 6.01663C0.188344 6.11572 0.000375562 6.38103 5.61892e-07 6.67888C-0.000374438 6.97672 0.186985 7.24246 0.467626 7.34221L11.7645 11.3583C11.8407 11.3854 11.9204 11.399 12 11.399C12.0797 11.399 12.1593 11.3854 12.2355 11.3583L23.5324 7.34221C23.813 7.24246 24.0003 6.97672 24 6.67888C23.9996 6.38103 23.8117 6.11572 23.5308 6.01663Z" fill="white" fill-opacity="0.6"/>
  <path d="M22.3115 15.4019V9.2688L20.9053 9.76872V15.4019C20.4817 15.6457 20.1963 16.1025 20.1963 16.6263C20.1963 17.1501 20.4817 17.607 20.9053 17.8508V21.3062C20.9053 21.6945 21.2201 22.0093 21.6084 22.0093C21.9967 22.0093 22.3115 21.6945 22.3115 21.3062V17.8508C22.7351 17.6071 23.0205 17.1502 23.0205 16.6264C23.0205 16.1026 22.7351 15.6457 22.3115 15.4019Z" fill="white" fill-opacity="0.6"/>
  <path d="M11.9997 12.8051C11.7583 12.8051 11.5206 12.7641 11.2931 12.6833L4.94238 10.4255V13.5197C4.94238 14.2766 5.73209 14.9168 7.28955 15.4223C8.6471 15.8629 10.3199 16.1056 11.9997 16.1056C13.6795 16.1056 15.3522 15.8629 16.7098 15.4223C18.2673 14.9168 19.057 14.2766 19.057 13.5197V10.4255L12.7063 12.6833C12.4788 12.7641 12.2411 12.8051 11.9997 12.8051Z" fill="white" fill-opacity="0.6"/>
</svg>