<svg xmlns="http://www.w3.org/2000/svg" width="24" height="24" viewBox="0 0 24 24" fill="none">
  <path d="M17.625 3.49678C16.1408 2.04127 14.0253 1.45312 12 1.45312C9.97069 1.45312 7.85686 2.04356 6.375 3.49678V5.67188H0V13.4062H8.78236C8.59303 12.9749 8.48438 12.5005 8.48438 12C8.48438 10.0616 10.0616 8.48438 12 8.48438C13.9384 8.48438 15.5156 10.0616 15.5156 12C15.5156 12.5005 15.407 12.9749 15.2176 13.4062H24V5.67188H17.625V3.49678ZM16.2188 5.67188H7.78125V4.11202C8.28183 3.7268 9.67434 2.85938 12 2.85938C14.3277 2.85938 15.7216 3.72816 16.2188 4.11131V5.67188Z" fill="white" fill-opacity="0.6"/>
  <path d="M14.1094 12C14.1094 10.8368 13.1632 9.89062 12 9.89062C10.8368 9.89062 9.89062 10.8368 9.89062 12C9.89062 13.1632 10.8368 14.1094 12 14.1094C13.1632 14.1094 14.1094 13.1632 14.1094 12ZM12.7031 12.7031H11.2969V11.2969H12.7031V12.7031Z" fill="white" fill-opacity="0.6"/>
  <path d="M14.1094 20.169L12 19.1143L9.89062 20.169V14.8125H0V22.5469H24V14.8125H14.1094V20.169Z" fill="white" fill-opacity="0.6"/>
  <path d="M11.2969 15.4445V17.8934L12 17.5419L12.7031 17.8934V15.4445C12.4758 15.4908 12.2408 15.5156 12 15.5156C11.7592 15.5156 11.5242 15.4908 11.2969 15.4445Z" fill="white" fill-opacity="0.6"/>
</svg>