<svg xmlns="http://www.w3.org/2000/svg" width="24" height="24" viewBox="0 0 24 24" fill="none">
  <g clip-path="url(#clip0_1103_17398)">
    <path d="M13.4062 11.2969C13.7943 11.2969 14.1094 10.9818 14.1094 10.5938C14.1094 10.2057 13.7943 9.89062 13.4062 9.89062C13.0182 9.89062 12.7031 10.2057 12.7031 10.5938C12.7031 10.9818 13.0182 11.2969 13.4062 11.2969Z" fill="#525252"/>
    <path d="M13.4062 14.1094C15.3446 14.1094 16.9219 12.5321 16.9219 10.5938C16.9219 8.6554 15.3446 7.07812 13.4062 7.07812C11.4679 7.07812 9.89062 8.6554 9.89062 10.5938C9.89062 12.5321 11.4679 14.1094 13.4062 14.1094ZM13.4062 8.48438C14.5693 8.48438 15.5156 9.43066 15.5156 10.5938C15.5156 11.7568 14.5693 12.7031 13.4062 12.7031C12.2432 12.7031 11.2969 11.7568 11.2969 10.5938C11.2969 9.43066 12.2432 8.48438 13.4062 8.48438Z" fill="#525252"/>
    <path d="M0 9.89062H2.8125V11.2969H0V9.89062Z" fill="#525252"/>
    <path d="M0 12.7031H4.21875V14.1094H0V12.7031Z" fill="#525252"/>
    <path d="M4.21875 9.89062V11.2969H5.625V15.5156H4.21875V16.9219H19.7344V4.26562H4.21875V5.67188H5.625V9.89062H4.21875ZM13.4062 5.67188C16.1199 5.67188 18.3281 7.88013 18.3281 10.5938C18.3281 13.3074 16.1199 15.5156 13.4062 15.5156C10.6926 15.5156 8.48438 13.3074 8.48438 10.5938C8.48438 7.88013 10.6926 5.67188 13.4062 5.67188Z" fill="#525252"/>
    <path d="M0 5.67188H2.8125V2.85938H21.1406V18.3281H2.8125V15.5156H0V21.1406H24V0H0V5.67188Z" fill="#525252"/>
    <path d="M0 7.07812H4.21875V8.48438H0V7.07812Z" fill="#525252"/>
    <path d="M1.40625 22.5469H7.03125V24H1.40625V22.5469Z" fill="#525252"/>
    <path d="M16.9219 22.5469H22.5469V24H16.9219V22.5469Z" fill="#525252"/>
  </g>
  <defs>
    <clipPath id="clip0_1103_17398">
      <rect width="24" height="24" fill="white"/>
    </clipPath>
  </defs>
</svg>