<svg xmlns="http://www.w3.org/2000/svg" width="24" height="24" viewBox="0 0 24 24" fill="none">
  <g clip-path="url(#clip0_1103_17434)">
    <path d="M22.6025 21.9199H21.8554V7.41796H22.5146C22.754 7.41796 22.9748 7.28791 23.0914 7.07807C23.2072 6.86892 23.2007 6.6128 23.0733 6.40928L19.7774 1.02708C19.5366 0.642014 18.9008 0.642014 18.6599 1.02708L15.364 6.40928C15.2366 6.6128 15.2301 6.86892 15.346 7.07807C15.4625 7.28791 15.6833 7.41796 15.9228 7.41796H16.582V21.9199H15.2636V10.7138C15.2636 10.3497 14.9687 10.0547 14.6045 10.0547H10.6494C10.2851 10.0547 9.99022 10.3497 9.99022 10.7138V21.9199H8.67186V14.6689C8.67186 14.3047 8.37688 14.0097 8.01268 14.0097H4.05761C3.69328 14.0097 3.39843 14.3047 3.39843 14.6689V21.9199H1.4209C1.05656 21.9199 0.761719 22.2149 0.761719 22.5791C0.761719 22.9434 1.05656 23.2382 1.4209 23.2382H22.6025C22.9667 23.2382 23.2617 22.9434 23.2617 22.5791C23.2617 22.2149 22.9667 21.9199 22.6025 21.9199Z" fill="#525252"/>
    <path d="M2.73925 6.0996C3.1029 6.0996 3.39843 6.39513 3.39843 6.75878C3.39843 7.12256 3.1029 7.41796 2.73925 7.41796C2.50415 7.41796 2.28538 7.29189 2.16755 7.08768C1.98601 6.77292 1.5824 6.66292 1.26709 6.84763C0.952194 7.02986 0.844116 7.43279 1.0269 7.74823C1.26407 8.15884 1.64502 8.45177 2.08008 8.60764V9.34262C2.08008 9.70709 2.37492 10.0018 2.73925 10.0018C3.10345 10.0018 3.39843 9.70709 3.39843 9.34262V8.61478C4.16404 8.3419 4.71679 7.61708 4.71679 6.75878C4.71679 5.66839 3.82964 4.78124 2.73925 4.78124C2.37547 4.78124 2.08008 4.48585 2.08008 4.12206C2.08008 3.75842 2.37547 3.46289 2.73925 3.46289C2.97422 3.46289 3.19313 3.58909 3.31082 3.79316C3.49182 4.10737 3.8935 4.21545 4.21142 4.03335C4.52618 3.85111 4.63439 3.44819 4.45147 3.13261C4.2143 2.722 3.83335 2.42907 3.39843 2.27334V1.39746C3.39843 1.03326 3.10345 0.738281 2.73925 0.738281C2.37492 0.738281 2.08008 1.03326 2.08008 1.39746V2.26593C1.31447 2.53907 0.761719 3.26376 0.761719 4.12206C0.761719 5.21245 1.64886 6.0996 2.73925 6.0996Z" fill="#525252"/>
  </g>
  <defs>
    <clipPath id="clip0_1103_17434">
      <rect width="24" height="24" fill="white"/>
    </clipPath>
  </defs>
</svg>