<svg xmlns="http://www.w3.org/2000/svg" width="24" height="24" viewBox="0 0 24 24" fill="none">
  <path d="M16.9688 18.3281C16.9688 18.7168 17.2832 19.0312 17.6719 19.0312C18.0605 19.0312 18.375 18.7168 18.375 18.3281V2.85938C18.375 2.47073 18.0605 2.15625 17.6719 2.15625C17.2832 2.15625 16.9688 2.47073 16.9688 2.85938C16.9688 4.7978 15.3915 6.375 13.4531 6.375H9.89062V14.8125H13.4531C15.3915 14.8125 16.9688 16.3897 16.9688 18.3281Z" fill="#525252"/>
  <path d="M22.9849 13.0305C22.8326 13.1067 22.6729 13.1666 22.5095 13.212V13.4062C22.5095 13.7946 22.1947 14.1094 21.8064 14.1094C21.4181 14.1094 21.1033 13.7946 21.1033 13.4062V13.2339C20.8106 13.1603 20.5377 13.0364 20.3064 12.863C19.9958 12.63 19.9328 12.1893 20.1658 11.8786C20.3988 11.568 20.8395 11.505 21.1502 11.738C21.4314 11.9489 21.9724 11.9646 22.3559 11.7727C22.5101 11.6956 22.5933 11.6028 22.5933 11.5547C22.5933 11.4705 22.5933 11.4576 22.4998 11.4076C22.3163 11.3097 21.9919 11.2495 21.6782 11.1914C21.2593 11.1136 20.8263 11.0333 20.451 10.833C19.903 10.5405 19.6133 10.0606 19.6133 9.44531C19.6133 8.82928 19.9827 8.29125 20.6268 7.96922C20.7795 7.89286 20.9395 7.83244 21.1033 7.78702V7.59375C21.1033 7.20544 21.4181 6.89062 21.8064 6.89062C22.1947 6.89062 22.5095 7.20544 22.5095 7.59375V7.76592C22.8023 7.83966 23.0752 7.96364 23.3064 8.13703C23.6171 8.37005 23.6801 8.81077 23.447 9.12141C23.214 9.43205 22.7734 9.49505 22.4627 9.26203C22.181 9.05077 21.6396 9.03511 21.2557 9.22697C21.1006 9.3045 21.0195 9.39548 21.0195 9.44527C21.0195 9.52945 21.0195 9.54239 21.1131 9.59236C21.2966 9.69028 21.621 9.75047 21.9347 9.80864C22.3535 9.88636 22.7866 9.9667 23.1619 10.167C23.7099 10.4595 23.9996 10.9394 23.9996 11.5547C23.9996 12.1702 23.6297 12.7081 22.9849 13.0305Z" fill="#525252"/>
  <path d="M9.18671 16.2188C9.04229 16.2188 4.12041 16.2188 4.26484 16.2188V19.7344C4.26484 20.8975 5.21105 21.8438 6.37421 21.8438C7.53737 21.8438 8.48359 20.8975 8.48359 19.7344V17.625H9.18671C9.57535 17.625 9.88984 17.3105 9.88984 16.9219C9.88984 16.5332 9.57535 16.2188 9.18671 16.2188Z" fill="#525252"/>
  <path d="M0 10.5938C0 12.9201 1.89239 14.8125 4.21875 14.8125H8.48438V6.375H4.21875C1.89239 6.375 0 8.26739 0 10.5938Z" fill="#525252"/>
</svg>