<svg xmlns="http://www.w3.org/2000/svg" width="24" height="24" viewBox="0 0 24 24" fill="none">
  <path d="M21.1149 2.8125H18.9384L19.8012 3.68367C20.195 4.08131 20.4118 4.60847 20.4118 5.16802V20.4844C20.4118 21.6475 19.4655 22.5938 18.3024 22.5938H5.83594V23.2969C5.83594 23.6852 6.15075 24 6.53906 24H21.1149C21.5032 24 21.818 23.6852 21.818 23.2969V3.51562C21.8181 3.12731 21.5033 2.8125 21.1149 2.8125Z" fill="#525252"/>
  <path d="M14.5547 0.384583V4.45315H18.5841L14.5547 0.384583Z" fill="#525252"/>
  <path d="M19.0056 20.4844V5.85938H13.8516C13.4632 5.85938 13.1484 5.54456 13.1484 5.15625V0H2.88281C2.4945 0 2.17969 0.314812 2.17969 0.703125V20.4844C2.17969 20.8727 2.4945 21.1875 2.88281 21.1875H18.3024C18.6908 21.1875 19.0056 20.8727 19.0056 20.4844ZM5.69531 2.8125H9.86723C10.2555 2.8125 10.5704 3.12731 10.5704 3.51562C10.5704 3.90394 10.2555 4.21875 9.86723 4.21875H5.69531C5.307 4.21875 4.99219 3.90394 4.99219 3.51562C4.99219 3.12731 5.307 2.8125 5.69531 2.8125ZM5.69531 5.71875H7.99219C8.3805 5.71875 8.69531 6.03356 8.69531 6.42188C8.69531 6.81019 8.3805 7.125 7.99219 7.125H5.69531C5.307 7.125 4.99219 6.81019 4.99219 6.42188C4.99219 6.03356 5.307 5.71875 5.69531 5.71875ZM4.82512 9.88153C5.03728 9.55622 5.47298 9.46463 5.7982 9.67669L6.48792 10.1265L8.63344 8.69625C8.86083 8.54466 9.15558 8.53856 9.38902 8.68064L12.3073 10.457L15.204 9.15548C15.5583 8.99634 15.9744 9.1545 16.1336 9.50869C16.2927 9.86292 16.1346 10.2791 15.7804 10.4382L12.546 11.8913C12.454 11.9326 12.3558 11.9531 12.2579 11.9531C12.1307 11.9531 12.0041 11.9186 11.8923 11.8506L9.04064 10.1148L6.88223 11.5537C6.64819 11.7098 6.34369 11.7113 6.10809 11.5576L5.03002 10.8545C4.70475 10.6425 4.61302 10.2068 4.82512 9.88153ZM15.8672 18.375H5.31806C4.92975 18.375 4.61494 18.0602 4.61494 17.6719C4.61494 17.3143 4.88203 17.0198 5.22745 16.9752C5.22731 16.9695 5.22661 16.9639 5.22661 16.9581V14.9531C5.22661 14.5648 5.54142 14.25 5.92973 14.25C6.31805 14.25 6.63286 14.5648 6.63286 14.9531V16.9581C6.63286 16.9617 6.63239 16.9651 6.63234 16.9687H8.33597V12.375C8.33597 11.9866 8.65078 11.6718 9.03909 11.6718C9.42741 11.6718 9.74222 11.9866 9.74222 12.375V16.9687H11.4458C11.4458 16.9651 11.4453 16.9617 11.4453 16.9581V15.179C11.4453 14.7907 11.7601 14.4759 12.1485 14.4759C12.5368 14.4759 12.8516 14.7907 12.8516 15.179V16.9581C12.8516 16.9617 12.8511 16.9651 12.8511 16.9687H14.5553C14.5552 16.9651 14.5547 16.9617 14.5547 16.9581V13.6034C14.5547 13.215 14.8695 12.9002 15.2579 12.9002C15.6462 12.9002 15.961 13.215 15.961 13.6034V16.9581C15.961 16.964 15.9602 16.9697 15.9601 16.9755C16.3044 17.0211 16.5704 17.3151 16.5704 17.6718C16.5703 18.0602 16.2555 18.375 15.8672 18.375Z" fill="#525252"/>
</svg>