<svg xmlns="http://www.w3.org/2000/svg" width="24" height="25" viewBox="0 0 24 25" fill="none">
  <path d="M21.9199 17.2508C21.5899 19.9108 19.4099 22.0908 16.7499 22.4208C15.1399 22.6208 13.6399 22.1808 12.4699 21.3208C11.7999 20.8308 11.9599 19.7908 12.7599 19.5508C15.7699 18.6408 18.1399 16.2608 19.0599 13.2508C19.2999 12.4608 20.3399 12.3008 20.8299 12.9608C21.6799 14.1408 22.1199 15.6408 21.9199 17.2508Z" fill="white"/>
  <path d="M9.99 2.50073C5.58 2.50073 2 6.08073 2 10.4907C2 14.9007 5.58 18.4807 9.99 18.4807C14.4 18.4807 17.98 14.9007 17.98 10.4907C17.97 6.08073 14.4 2.50073 9.99 2.50073ZM9.05 9.37073L11.46 10.2107C12.33 10.5207 12.75 11.1307 12.75 12.0707C12.75 13.1507 11.89 14.0407 10.84 14.0407H10.75V14.0907C10.75 14.5007 10.41 14.8407 10 14.8407C9.59 14.8407 9.25 14.5007 9.25 14.0907V14.0307C8.14 13.9807 7.25 13.0507 7.25 11.8907C7.25 11.4807 7.59 11.1407 8 11.1407C8.41 11.1407 8.75 11.4807 8.75 11.8907C8.75 12.2507 9.01 12.5407 9.33 12.5407H10.83C11.06 12.5407 11.24 12.3307 11.24 12.0707C11.24 11.7207 11.18 11.7007 10.95 11.6207L8.54 10.7807C7.68 10.4807 7.25 9.87073 7.25 8.92073C7.25 7.84073 8.11 6.95073 9.16 6.95073H9.25V6.91073C9.25 6.50073 9.59 6.16073 10 6.16073C10.41 6.16073 10.75 6.50073 10.75 6.91073V6.97073C11.86 7.02073 12.75 7.95073 12.75 9.11073C12.75 9.52073 12.41 9.86073 12 9.86073C11.59 9.86073 11.25 9.52073 11.25 9.11073C11.25 8.75073 10.99 8.46073 10.67 8.46073H9.17C8.94 8.46073 8.76 8.67073 8.76 8.93073C8.75 9.27073 8.81 9.29073 9.05 9.37073Z" fill="white"/>
</svg>