<svg xmlns="http://www.w3.org/2000/svg" width="24" height="25" viewBox="0 0 24 25" fill="none">
  <path d="M21.9199 17.2506C21.5899 19.9106 19.4099 22.0906 16.7499 22.4206C15.1399 22.6206 13.6399 22.1806 12.4699 21.3206C11.7999 20.8306 11.9599 19.7906 12.7599 19.5506C15.7699 18.6406 18.1399 16.2606 19.0599 13.2506C19.2999 12.4606 20.3399 12.3006 20.8299 12.9606C21.6799 14.1406 22.1199 15.6406 21.9199 17.2506Z" fill="#525252"/>
  <path d="M9.99 2.50049C5.58 2.50049 2 6.08049 2 10.4905C2 14.9005 5.58 18.4805 9.99 18.4805C14.4 18.4805 17.98 14.9005 17.98 10.4905C17.97 6.08049 14.4 2.50049 9.99 2.50049ZM9.05 9.37049L11.46 10.2105C12.33 10.5205 12.75 11.1305 12.75 12.0705C12.75 13.1505 11.89 14.0405 10.84 14.0405H10.75V14.0905C10.75 14.5005 10.41 14.8405 10 14.8405C9.59 14.8405 9.25 14.5005 9.25 14.0905V14.0305C8.14 13.9805 7.25 13.0505 7.25 11.8905C7.25 11.4805 7.59 11.1405 8 11.1405C8.41 11.1405 8.75 11.4805 8.75 11.8905C8.75 12.2505 9.01 12.5405 9.33 12.5405H10.83C11.06 12.5405 11.24 12.3305 11.24 12.0705C11.24 11.7205 11.18 11.7005 10.95 11.6205L8.54 10.7805C7.68 10.4805 7.25 9.87049 7.25 8.92049C7.25 7.84049 8.11 6.95049 9.16 6.95049H9.25V6.91049C9.25 6.50049 9.59 6.16049 10 6.16049C10.41 6.16049 10.75 6.50049 10.75 6.91049V6.97049C11.86 7.02049 12.75 7.95049 12.75 9.11049C12.75 9.52049 12.41 9.86049 12 9.86049C11.59 9.86049 11.25 9.52049 11.25 9.11049C11.25 8.75049 10.99 8.46049 10.67 8.46049H9.17C8.94 8.46049 8.76 8.67049 8.76 8.93049C8.75 9.27049 8.81 9.29049 9.05 9.37049Z" fill="#525252"/>
</svg>