<svg xmlns="http://www.w3.org/2000/svg" width="24" height="24" viewBox="0 0 24 24" fill="none">
  <path d="M22 16.19C22 19.83 22 20 22 22H15C14.45 22 14 21.55 14 21V15.23C14 14.96 14.22 14.73 14.49 14.73L16.25 14.7C16.39 14.69 16.51 14.59 16.54 14.45L16.89 12.54C16.92 12.36 16.78 12.19 16.59 12.19L14.46 12.22C14.18 12.22 13.96 12 13.95 11.73L13.91 9.27997C13.91 9.11997 14.04 8.97998 14.21 8.97998L16.61 8.93997C16.78 8.93997 16.91 8.80998 16.91 8.63998L16.87 6.23996C16.87 6.06996 16.74 5.93997 16.57 5.93997L13.87 5.97998C12.21 6.00998 10.89 7.36997 10.92 9.02997L10.97 11.78C10.98 12.06 10.76 12.28 10.48 12.29L9.28 12.31C9.11 12.31 8.98001 12.44 8.98001 12.61L9.01001 14.51C9.01001 14.68 9.14 14.81 9.31 14.81L10.51 14.79C10.79 14.79 11.01 15.01 11.02 15.28L11.11 20.98C11.12 21.54 10.67 22 10.11 22H2C2 20.5 2 19.83 2 16.18V7.80997C2 4.16997 2 1.99997 2 1.99997H22C22 1.99997 22 4.16997 22 7.80997V16.19Z" fill="white"/>
</svg>