<svg xmlns="http://www.w3.org/2000/svg" width="81" height="39" viewBox="0 0 81 39" fill="none">
  <g filter="url(#filter0_d_1103_15441)">
    <path d="M4 32.6091V2.32241H24.0899V7.65945H10.5086V14.602H22.658V19.939H10.5086V32.6091H4Z" fill="white"/>
    <path d="M29.6269 27.6191H36.2223V15.2094H29.193V10.2195H36.2223V6.9652C36.2223 5.05602 36.7719 3.50842 37.8711 2.32241C38.9993 1.10747 40.7349 0.5 43.078 0.5H50.6714V5.48992H42.6441V10.2195H50.6714V15.2094H42.6441V27.6191H49.6734V32.6091H29.6269V27.6191Z" fill="white"/>
    <path d="M53.5616 32.6091L61.936 21.2407L54.1257 10.2195H61.4587L63.8452 13.8209L65.6676 16.7281H66.0147L67.8805 13.8209L70.3104 10.2195H77.0359L69.2256 20.8936L77.6 32.6091H70.2236L67.4032 28.4002L65.4506 25.4062H65.1035L63.1943 28.4002L60.3305 32.6091H53.5616Z" fill="white"/>
  </g>
  <defs>
    <filter id="filter0_d_1103_15441" x="0.8" y="0.5" width="79.9996" height="38.5089" filterUnits="userSpaceOnUse" color-interpolation-filters="sRGB">
      <feFlood flood-opacity="0" result="BackgroundImageFix"/>
      <feColorMatrix in="SourceAlpha" type="matrix" values="0 0 0 0 0 0 0 0 0 0 0 0 0 0 0 0 0 0 127 0" result="hardAlpha"/>
      <feOffset dy="3.2"/>
      <feGaussianBlur stdDeviation="1.6"/>
      <feComposite in2="hardAlpha" operator="out"/>
      <feColorMatrix type="matrix" values="0 0 0 0 0 0 0 0 0 0 0 0 0 0 0 0 0 0 0.25 0"/>
      <feBlend mode="normal" in2="BackgroundImageFix" result="effect1_dropShadow_1103_15441"/>
      <feBlend mode="normal" in="SourceGraphic" in2="effect1_dropShadow_1103_15441" result="shape"/>
    </filter>
  </defs>
</svg>