<svg xmlns="http://www.w3.org/2000/svg" width="24" height="24" viewBox="0 0 24 24" fill="none">
  <g clip-path="url(#clip0_1103_16929)">
    <path d="M23.2967 1.61072H20.8375C20.8498 1.30936 20.8562 1.00673 20.8562 0.703125C20.8562 0.314812 20.5414 0 20.1531 0H3.84675C3.45844 0 3.14363 0.314812 3.14363 0.703125C3.14363 1.00673 3.15005 1.30941 3.16238 1.61072H0.703125C0.314812 1.61072 0 1.92553 0 2.31384V3.82514C0 7.96688 2.99259 11.4225 6.92902 12.1441C7.26619 12.5126 7.62042 12.8448 7.9898 13.1372C9.20316 14.0979 9.89906 15.5142 9.89906 17.0229V19.7812H7.22709C6.83878 19.7812 6.52397 20.0961 6.52397 20.4844V22.5938H5.82084C5.43253 22.5938 5.11772 22.9086 5.11772 23.2969C5.11772 23.6852 5.43253 24 5.82084 24H18.1791C18.5674 24 18.8822 23.6852 18.8822 23.2969C18.8822 22.9086 18.5674 22.5938 18.1791 22.5938H17.476V20.4844C17.476 20.0961 17.1612 19.7812 16.7729 19.7812H14.1008V17.0229C14.1008 15.5142 14.7967 14.0979 16.0101 13.1372C16.3794 12.8447 16.7337 12.5125 17.0708 12.1441C21.0073 11.4225 23.9999 7.96688 23.9999 3.82514V2.31384C23.9998 1.92553 23.685 1.61072 23.2967 1.61072ZM1.40625 3.82514V3.01697H3.26498C3.45338 4.80183 3.85894 6.51281 4.46531 8.05486C4.77422 8.84044 5.13056 9.57098 5.52769 10.2384C3.09802 9.12389 1.40625 6.66848 1.40625 3.82514ZM22.5936 3.82514C22.5936 6.66853 20.9018 9.12394 18.4721 10.2384C18.8693 9.57103 19.2256 8.84048 19.5345 8.05491C20.1409 6.51286 20.5464 4.80188 20.7348 3.01702H22.5935L22.5936 3.82514Z" fill="white" fill-opacity="0.6"/>
  </g>
  <defs>
    <clipPath id="clip0_1103_16929">
      <rect width="24" height="24" fill="white"/>
    </clipPath>
  </defs>
</svg>