<svg xmlns="http://www.w3.org/2000/svg" width="24" height="24" viewBox="0 0 24 24" fill="none">
  <path d="M9.89062 24V17.916L2.85938 12.291V9.84375H21.1406V12.291L14.1094 17.916V22.2683L9.89062 24Z" fill="white" fill-opacity="0.6"/>
  <path d="M9.1875 8.4375C7.24898 8.4375 5.67188 6.86039 5.67188 4.92188C5.67188 2.98336 7.24898 1.40625 9.1875 1.40625C11.126 1.40625 12.7031 2.98336 12.7031 4.92188C12.7031 6.86039 11.126 8.4375 9.1875 8.4375Z" fill="white" fill-opacity="0.6"/>
  <path d="M16.2188 4.21875C15.0556 4.21875 14.1094 3.27248 14.1094 2.10938C14.1094 0.946266 15.0556 0 16.2188 0C17.3819 0 18.3281 0.946266 18.3281 2.10938C18.3281 3.27248 17.3819 4.21875 16.2188 4.21875Z" fill="white" fill-opacity="0.6"/>
</svg>