<svg xmlns="http://www.w3.org/2000/svg" width="24" height="24" viewBox="0 0 24 24" fill="none">
  <g clip-path="url(#clip0_1103_16885)">
    <path d="M7.05859 11.2941H8.47036V24H7.05859V11.2941Z" fill="white" fill-opacity="0.6"/>
    <path d="M1.41211 10.7573V19.8117C1.41211 22.1211 3.29093 24 5.60034 24H5.6474V11.2941H3.17682C2.52425 11.2941 1.91719 11.0961 1.41211 10.7573Z" fill="white" fill-opacity="0.6"/>
    <path d="M9.88281 24H22.5887V19.7647H17.9757L16.0933 16.9411L17.9757 14.1176H22.5887V11.2941H9.88281V24Z" fill="white" fill-opacity="0.6"/>
    <path d="M17.7891 16.9412L18.7302 18.3529H22.5878V15.5294H18.7302L17.7891 16.9412Z" fill="white" fill-opacity="0.6"/>
    <path d="M3.17682 9.88235H21.1768V6.35294H16.9415V2.82353H18.4747C18.7661 3.64513 19.5507 4.23529 20.4709 4.23529C21.6387 4.23529 22.5886 3.28532 22.5886 2.11765C22.5886 0.949977 21.6387 0 20.4709 0C19.5507 0 18.7661 0.590212 18.4747 1.41176H15.5298V6.35294H12.7062V4.11388C13.5278 3.82249 14.118 3.03788 14.118 2.11765C14.118 0.949977 13.1681 0 12.0003 0C10.8327 0 9.8827 0.949977 9.8827 2.11765C9.8827 3.03788 10.4729 3.82249 11.2945 4.11388V6.35294H8.47093V1.41176H5.52599C5.2346 0.590212 4.44999 0 3.52976 0C2.36213 0 1.41211 0.949977 1.41211 2.11765C1.41211 3.28532 2.36213 4.23529 3.52976 4.23529C4.44999 4.23529 5.2346 3.64513 5.52599 2.82353H7.05917V6.35294H3.17682C2.20218 6.35294 1.41211 7.14301 1.41211 8.11765C1.41211 9.09228 2.20218 9.88235 3.17682 9.88235Z" fill="white" fill-opacity="0.6"/>
  </g>
  <defs>
    <clipPath id="clip0_1103_16885">
      <rect width="24" height="24" fill="white"/>
    </clipPath>
  </defs>
</svg>