<svg xmlns="http://www.w3.org/2000/svg" width="24" height="24" viewBox="0 0 24 24" fill="none">
  <path d="M22.0891 19.5287L19.6722 15.1919C19.4162 15.5929 19.0268 15.8906 18.5727 16.0328L16.9245 16.5173L15.8036 17.8122C15.2815 18.4151 14.4553 18.6574 13.6903 18.4322L12.1633 17.9854L12.0369 17.9476L11.9107 17.9843L10.3836 18.4322C9.61862 18.6574 8.79246 18.4151 8.27015 17.8122L7.1504 16.5132L5.50013 16.0328C5.04641 15.8904 4.65757 15.5927 4.40163 15.1919L1.98485 19.5287C1.80758 19.8597 1.82529 20.2613 2.03071 20.5755C2.23632 20.8898 2.59702 21.0669 2.97132 21.0375L5.96335 20.7534L7.30008 23.446C7.47326 23.7786 7.81364 23.9905 8.18832 23.9995C8.56318 24.0082 8.91307 23.8127 9.1019 23.4889L12.0369 18.2113L14.9719 23.4878C15.1607 23.8118 15.5108 24.0073 15.8855 23.9984C16.2603 23.9894 16.6007 23.7775 16.7739 23.4451L18.1106 20.7523L21.1025 21.0363C21.4764 21.065 21.8362 20.8878 22.0414 20.574C22.2468 20.2603 22.2649 19.8597 22.0891 19.5287Z" fill="#A5C6E2"/>
  <path d="M4.78032 12.2234L5.06739 14.221C5.12443 14.6156 5.40647 14.9407 5.78916 15.0525L7.72351 15.6216L9.04682 17.1487C9.30891 17.448 9.72125 17.5673 10.1026 17.4542L12.0368 16.8851L13.9712 17.4542C14.3525 17.5673 14.7649 17.448 15.0268 17.1487L16.3503 15.6216L18.2846 15.0525C18.6673 14.9407 18.9494 14.6156 19.0064 14.221L19.2935 12.2234L20.6168 10.6964C20.8774 10.3951 20.9383 9.96937 20.7726 9.60718L19.9347 7.7746L20.222 5.77724C20.2785 5.38299 20.0999 4.99191 19.7647 4.77661L18.0697 3.68314L17.2309 1.85075C17.0652 1.48856 16.7037 1.2563 16.3055 1.25611H14.2867L12.5897 0.161895C12.2542 -0.053965 11.8236 -0.053965 11.4882 0.161895L9.79115 1.25313H7.77328C7.37512 1.25331 7.01367 1.48558 6.84796 1.84777L6.00912 3.68016L4.31095 4.77455C3.97597 4.99004 3.79739 5.38094 3.85387 5.77519L4.14094 7.77255L3.30323 9.60513C3.13751 9.96732 3.19828 10.3931 3.45888 10.6943L4.78032 12.2234ZM12.0389 4.51806C14.4989 4.5175 16.4934 6.51132 16.4938 8.97115C16.4942 11.4312 14.5002 13.4256 12.0403 13.4257C9.58032 13.4259 7.58594 11.4319 7.58594 8.9719C7.58818 6.51337 9.58051 4.52085 12.0389 4.51806Z" fill="#A5C6E2"/>
</svg>