<svg xmlns="http://www.w3.org/2000/svg" width="24" height="24" viewBox="0 0 24 24" fill="none">
  <g clip-path="url(#clip0_1103_16777)">
    <path d="M5.64844 17.625C5.64844 17.2369 5.33344 16.9219 4.94531 16.9219H2.13281C1.74469 16.9219 1.42969 17.2369 1.42969 17.625V21.1875H5.64844V17.625Z" fill="white" fill-opacity="0.6"/>
    <path d="M7.77344 14.1094C7.38531 14.1094 7.07031 14.4244 7.07031 14.8125V21.1875H11.2891V14.8125C11.2891 14.4244 10.9745 14.1094 10.5859 14.1094H7.77344Z" fill="white" fill-opacity="0.6"/>
    <path d="M13.4141 15.5156C13.0255 15.5156 12.7109 15.8306 12.7109 16.2188V21.1875H16.9297V16.2188C16.9297 15.8306 16.6147 15.5156 16.2266 15.5156H13.4141Z" fill="white" fill-opacity="0.6"/>
    <path d="M18.3516 12.4688V21.1875H22.5703V12.4688C22.5703 12.0806 22.2553 11.7656 21.8672 11.7656H19.0547C18.6666 11.7656 18.3516 12.0806 18.3516 12.4688Z" fill="white" fill-opacity="0.6"/>
    <path d="M23.2969 22.5938H0.703125C0.314812 22.5938 0 22.9086 0 23.2969C0 23.6852 0.314812 24 0.703125 24H23.2969C23.6852 24 24 23.6852 24 23.2969C24 22.9086 23.6852 22.5938 23.2969 22.5938Z" fill="white" fill-opacity="0.6"/>
    <path d="M12.0005 9.03609C14.4917 9.03609 16.5185 7.00931 16.5185 4.51805C16.5185 2.02678 14.4917 0 12.0005 0C9.50925 0 7.48242 2.02678 7.48242 4.51805C7.48242 7.00931 9.50925 9.03609 12.0005 9.03609ZM11.1841 3.87502H11.4982V3.30647C11.4982 2.91816 11.8131 2.60334 12.2014 2.60334C12.5897 2.60334 12.9045 2.91816 12.9045 3.30647V4.57809C12.9045 4.96641 12.5897 5.28122 12.2014 5.28122H11.1841C10.7958 5.28122 10.481 4.96641 10.481 4.57809C10.481 4.18978 10.7958 3.87502 11.1841 3.87502Z" fill="white" fill-opacity="0.6"/>
    <path d="M3.98442 15.375L9.26179 11.417L14.4981 14.0351C14.7688 14.1705 15.0958 14.1174 15.3097 13.9034L19.7344 9.47873V9.89063C19.7344 10.2789 20.0492 10.5938 20.4375 10.5938C20.8259 10.5938 21.1407 10.2789 21.1407 9.89063V7.78148C21.1409 7.39327 20.8255 7.07794 20.4373 7.07813H18.3282C17.9399 7.07813 17.625 7.39294 17.625 7.78125C17.625 8.16956 17.9399 8.48438 18.3282 8.48438H18.7401L14.6737 12.5507L9.50198 9.96488C9.26372 9.84572 8.97872 9.8715 8.76567 10.0313L3.14067 14.25C2.83003 14.483 2.76703 14.9237 3.00004 15.2344C3.23306 15.545 3.67378 15.608 3.98442 15.375Z" fill="white" fill-opacity="0.6"/>
  </g>
  <defs>
    <clipPath id="clip0_1103_16777">
      <rect width="24" height="24" fill="white"/>
    </clipPath>
  </defs>
</svg>