<svg xmlns="http://www.w3.org/2000/svg" width="24" height="24" viewBox="0 0 24 24" fill="none">
  <g clip-path="url(#clip0_1103_16756)">
    <path d="M10.527 13.8333H9.51069V12.8168C9.51069 12.4285 9.19585 12.1136 8.8075 12.1136C8.41915 12.1136 8.10431 12.4285 8.10431 12.8168V13.8333H7.08796C6.69961 13.8333 6.38477 14.1481 6.38477 14.5365V17.9754C6.38477 18.3637 6.69961 18.6786 7.08796 18.6786H8.10431V19.7523C8.10431 20.1406 8.41915 20.4555 8.8075 20.4555C9.19585 20.4555 9.51069 20.1406 9.51069 19.7523V18.6786H10.527C10.9153 18.6786 11.2302 18.3637 11.2302 17.9754V14.5365C11.2302 14.1481 10.9153 13.8333 10.527 13.8333Z" fill="white" fill-opacity="0.6"/>
    <path d="M16.9118 10.394H15.8955V9.37763C15.8955 8.98928 15.5806 8.67444 15.1923 8.67444C14.8039 8.67444 14.4891 8.98928 14.4891 9.37763V10.394H13.4727C13.0844 10.394 12.7695 10.7089 12.7695 11.0972V14.5361C12.7695 14.9245 13.0844 15.2393 13.4727 15.2393H14.4891V19.7523C14.4891 20.1406 14.8039 20.4555 15.1923 20.4555C15.5806 20.4555 15.8955 20.1406 15.8955 19.7523V15.2393H16.9118C17.3001 15.2393 17.6149 14.9245 17.6149 14.5361V11.0972C17.6149 10.7089 17.3001 10.394 16.9118 10.394Z" fill="white" fill-opacity="0.6"/>
    <path d="M23.2965 5.26407H22.2802V4.24763C22.2802 3.85928 21.9653 3.54443 21.577 3.54443C21.1886 3.54443 20.8738 3.85928 20.8738 4.24763V5.26402H19.8575C19.4691 5.26402 19.1543 5.57886 19.1543 5.96721V11.0972C19.1543 11.4855 19.4691 11.8004 19.8575 11.8004H20.8738V14.5934C20.8738 14.9817 21.1886 15.2966 21.577 15.2966C21.9653 15.2966 22.2802 14.9817 22.2802 14.5934V11.8004H23.2965C23.6849 11.8004 23.9997 11.4855 23.9997 11.0972V5.96726C23.9997 5.57891 23.6849 5.26407 23.2965 5.26407Z" fill="white" fill-opacity="0.6"/>
    <path d="M4.14218 8.61726H3.12592V4.24763C3.12592 3.85928 2.81108 3.54443 2.42273 3.54443C2.03438 3.54443 1.71954 3.85928 1.71954 4.24763V8.61726H0.703192C0.314843 8.61726 0 8.93211 0 9.32046V14.5934C0 14.9817 0.314843 15.2966 0.703192 15.2966H1.71954V16.313C1.71954 16.7013 2.03438 17.0161 2.42273 17.0161C2.81108 17.0161 3.12592 16.7013 3.12592 16.313V15.2966H4.14222C4.53057 15.2966 4.84542 14.9817 4.84542 14.5934V9.32046C4.84537 8.93211 4.53057 8.61726 4.14218 8.61726Z" fill="white" fill-opacity="0.6"/>
  </g>
  <defs>
    <clipPath id="clip0_1103_16756">
      <rect width="24" height="24" fill="white"/>
    </clipPath>
  </defs>
</svg>