<svg xmlns="http://www.w3.org/2000/svg" width="24" height="24" viewBox="0 0 24 24" fill="none">
  <g clip-path="url(#clip0_1103_16713)">
    <path d="M10.8299 10.9388L10.1484 12.7282H11.5051L10.8299 10.9388Z" fill="white" fill-opacity="0.6"/>
    <path d="M6.60938 17.3906H17.3906V6.60938H6.60938V17.3906ZM14.6953 9.1875C14.6953 8.79919 15.0101 8.48438 15.3984 8.48438C15.7867 8.48438 16.1016 8.79919 16.1016 9.1875V14.8125C16.1016 15.2008 15.7867 15.5156 15.3984 15.5156C15.0101 15.5156 14.6953 15.2008 14.6953 14.8125V9.1875ZM7.94447 14.5622L10.0567 9.01645C10.0587 9.01111 10.0608 9.00577 10.0629 9.00047C10.191 8.6873 10.4925 8.4847 10.8309 8.48438H10.8317C11.1698 8.48438 11.4713 8.68627 11.5999 8.99897C11.6025 9.00534 11.605 9.01177 11.6075 9.01823L13.7004 14.5643C13.8375 14.9276 13.6542 15.3332 13.2909 15.4703C13.2091 15.5012 13.1252 15.5158 13.0427 15.5158C12.7586 15.5158 12.491 15.3423 12.3848 15.0607L12.0352 14.1344H9.61219L9.25861 15.0627C9.12037 15.4256 8.71416 15.6078 8.3513 15.4695C7.98839 15.3314 7.80628 14.9251 7.94447 14.5622Z" fill="white" fill-opacity="0.6"/>
    <path d="M20.2031 3.09375H3.79688C3.40856 3.09375 3.09375 3.40856 3.09375 3.79688V20.2031C3.09375 20.5914 3.40856 20.9062 3.79688 20.9062H20.2031C20.5914 20.9062 20.9062 20.5914 20.9062 20.2031V3.79688C20.9062 3.40856 20.5914 3.09375 20.2031 3.09375ZM18.7969 18.0938C18.7969 18.4821 18.4821 18.7969 18.0938 18.7969H5.90625C5.51794 18.7969 5.20312 18.4821 5.20312 18.0938V5.90625C5.20312 5.51794 5.51794 5.20312 5.90625 5.20312H18.0938C18.4821 5.20312 18.7969 5.51794 18.7969 5.90625V18.0938Z" fill="white" fill-opacity="0.6"/>
    <path d="M19.7344 0.703125C19.7344 0.314812 19.4196 0 19.0312 0C18.6429 0 18.3281 0.314812 18.3281 0.703125V1.6875H19.7344V0.703125Z" fill="white" fill-opacity="0.6"/>
    <path d="M16.9219 0.703125C16.9219 0.314812 16.6071 0 16.2188 0C15.8304 0 15.5156 0.314812 15.5156 0.703125V1.6875H16.9219V0.703125Z" fill="white" fill-opacity="0.6"/>
    <path d="M14.1094 0.703125C14.1094 0.314812 13.7946 0 13.4062 0C13.0179 0 12.7031 0.314812 12.7031 0.703125V1.6875H14.1094V0.703125Z" fill="white" fill-opacity="0.6"/>
    <path d="M11.2969 0.703125C11.2969 0.314812 10.9821 0 10.5938 0C10.2054 0 9.89062 0.314812 9.89062 0.703125V1.6875H11.2969V0.703125Z" fill="white" fill-opacity="0.6"/>
    <path d="M8.48438 0.703125C8.48438 0.314812 8.16956 0 7.78125 0C7.39294 0 7.07812 0.314812 7.07812 0.703125V1.6875H8.48438V0.703125Z" fill="white" fill-opacity="0.6"/>
    <path d="M5.67188 0.703125C5.67188 0.314812 5.35706 0 4.96875 0C4.58044 0 4.26562 0.314812 4.26562 0.703125V1.6875H5.67188V0.703125Z" fill="white" fill-opacity="0.6"/>
    <path d="M18.3281 23.2969C18.3281 23.6852 18.6429 24 19.0312 24C19.4196 24 19.7344 23.6852 19.7344 23.2969V22.3125H18.3281V23.2969Z" fill="white" fill-opacity="0.6"/>
    <path d="M15.5156 23.2969C15.5156 23.6852 15.8304 24 16.2188 24C16.6071 24 16.9219 23.6852 16.9219 23.2969V22.3125H15.5156V23.2969Z" fill="white" fill-opacity="0.6"/>
    <path d="M12.7031 23.2969C12.7031 23.6852 13.0179 24 13.4062 24C13.7946 24 14.1094 23.6852 14.1094 23.2969V22.3125H12.7031V23.2969Z" fill="white" fill-opacity="0.6"/>
    <path d="M9.89062 23.2969C9.89062 23.6852 10.2054 24 10.5938 24C10.9821 24 11.2969 23.6852 11.2969 23.2969V22.3125H9.89062V23.2969Z" fill="white" fill-opacity="0.6"/>
    <path d="M7.07812 23.2969C7.07812 23.6852 7.39294 24 7.78125 24C8.16956 24 8.48438 23.6852 8.48438 23.2969V22.3125H7.07812V23.2969Z" fill="white" fill-opacity="0.6"/>
    <path d="M4.26562 23.2969C4.26562 23.6852 4.58044 24 4.96875 24C5.35706 24 5.67188 23.6852 5.67188 23.2969V22.3125H4.26562V23.2969Z" fill="white" fill-opacity="0.6"/>
    <path d="M0 4.96875C0 5.35706 0.314812 5.67188 0.703125 5.67188H1.6875V4.26562H0.703125C0.314812 4.26562 0 4.58044 0 4.96875Z" fill="white" fill-opacity="0.6"/>
    <path d="M0 7.78125C0 8.16956 0.314812 8.48438 0.703125 8.48438H1.6875V7.07812H0.703125C0.314812 7.07812 0 7.39294 0 7.78125Z" fill="white" fill-opacity="0.6"/>
    <path d="M0 10.5938C0 10.9821 0.314812 11.2969 0.703125 11.2969H1.6875V9.89062H0.703125C0.314812 9.89062 0 10.2054 0 10.5938Z" fill="white" fill-opacity="0.6"/>
    <path d="M0 13.4062C0 13.7946 0.314812 14.1094 0.703125 14.1094H1.6875V12.7031H0.703125C0.314812 12.7031 0 13.0179 0 13.4062Z" fill="white" fill-opacity="0.6"/>
    <path d="M0 16.2188C0 16.6071 0.314812 16.9219 0.703125 16.9219H1.6875V15.5156H0.703125C0.314812 15.5156 0 15.8304 0 16.2188Z" fill="white" fill-opacity="0.6"/>
    <path d="M0 19.0312C0 19.4196 0.314812 19.7344 0.703125 19.7344H1.6875V18.3281H0.703125C0.314812 18.3281 0 18.6429 0 19.0312Z" fill="white" fill-opacity="0.6"/>
    <path d="M24 4.96875C24 4.58044 23.6852 4.26562 23.2969 4.26562H22.3125V5.67188H23.2969C23.6852 5.67188 24 5.35706 24 4.96875Z" fill="white" fill-opacity="0.6"/>
    <path d="M23.2969 7.07812H22.3125V8.48438H23.2969C23.6852 8.48438 24 8.16956 24 7.78125C24 7.39294 23.6852 7.07812 23.2969 7.07812Z" fill="white" fill-opacity="0.6"/>
    <path d="M23.2969 9.89062H22.3125V11.2969H23.2969C23.6852 11.2969 24 10.9821 24 10.5938C24 10.2054 23.6852 9.89062 23.2969 9.89062Z" fill="white" fill-opacity="0.6"/>
    <path d="M23.2969 12.7031H22.3125V14.1094H23.2969C23.6852 14.1094 24 13.7946 24 13.4062C24 13.0179 23.6852 12.7031 23.2969 12.7031Z" fill="white" fill-opacity="0.6"/>
    <path d="M23.2969 15.5156H22.3125V16.9219H23.2969C23.6852 16.9219 24 16.6071 24 16.2188C24 15.8304 23.6852 15.5156 23.2969 15.5156Z" fill="white" fill-opacity="0.6"/>
    <path d="M23.2969 18.3281H22.3125V19.7344H23.2969C23.6852 19.7344 24 19.4196 24 19.0312C24 18.6429 23.6852 18.3281 23.2969 18.3281Z" fill="white" fill-opacity="0.6"/>
  </g>
  <defs>
    <clipPath id="clip0_1103_16713">
      <rect width="24" height="24" fill="white"/>
    </clipPath>
  </defs>
</svg>