<svg xmlns="http://www.w3.org/2000/svg" width="30" height="22" viewBox="0 0 30 22" fill="none">
  <g transform="translate(0,0)">
    <path d="M0 5.48236V13.6348C0 14.2745 0.520438 14.795 1.16016 14.795H20.8398C21.4796 14.795 22 14.2745 22 13.6348V5.48236H0Z" fill="#525252"/>
    <path d="M20.8398 0.378906H1.16016C0.520438 0.378906 0 0.899344 0 1.53906V2.95243H22V1.53906C22 0.899344 21.4796 0.378906 20.8398 0.378906Z" fill="#525252"/>
  </g>

  <g transform="translate(15,6)">
  <rect x="0.5" y="0.5" width="13.8374" height="13.8374" rx="6.9187" fill="#F7F7F7"/>
    <rect x="0.5" y="0.5" width="13.8374" height="13.8374" rx="6.9187" stroke="#F7F7F7"/>
    <path d="M6.91797 6.91852L8.91797 5.9185L6.91797 4.91852L4.91797 5.9185L6.91797 6.91852Z" fill="#525252"/>
    <path d="M6.91797 7.91456L4.91797 6.91852V8.92247L6.91797 9.91852V7.91456Z" fill="#525252"/>
    <path d="M7.91797 7.91456V9.91852L9.91797 8.92247V6.91852L7.91797 7.91456Z" fill="#525252"/>
    <path d="M7.41871 1C3.87942 1 1 3.87942 1 7.41868C1 10.9579 3.87942 13.8374 7.41871 13.8374C10.958 13.8374 13.8374 10.958 13.8374 7.41868C13.8374 3.87939 10.958 1 7.41871 1ZM7.41871 12.7553C4.47608 12.7553 2.08205 10.3613 2.08205 7.41868C2.08205 4.47605 4.47605 2.08205 7.41871 2.08205C10.3614 2.08205 12.7554 4.47605 12.7554 7.41868C12.7553 10.3613 10.3613 12.7553 7.41871 12.7553Z" fill="#525252"/>
    <path d="M7.41797 1.91852C4.38527 1.91852 1.91797 4.38579 1.91797 7.4185C1.91797 10.4512 4.38524 12.9185 7.41797 12.9185C10.4507 12.9185 12.918 10.4512 12.918 7.4185C12.9179 4.38579 10.4507 1.91852 7.41797 1.91852ZM10.9674 9.49121L7.41797 11.5707L3.86855 9.49121V5.34579L7.41797 3.2663L10.9674 5.34579V9.49121Z" fill="#525252"/>
  </g>
</svg>
