<svg xmlns="http://www.w3.org/2000/svg" width="24" height="24" viewBox="0 0 24 24" fill="none">
  <path d="M13.6934 2.49642L10.3074 0L4.28711 8.16562H5.84046L13.6934 2.49642Z" fill="#525252"/>
  <path d="M19.4404 8.16561L15.6039 2.85077L8.24219 8.16561H19.4404Z" fill="#525252"/>
  <path d="M20.3676 9.57178H6.29469H6.27782H2.3457V24H20.3676C21.0759 24 21.6524 23.4239 21.6524 22.7157V20.6557H15.8632C13.7296 20.6557 11.9934 18.92 11.9934 16.7859C11.9934 14.6523 13.7296 12.9161 15.8632 12.9161H21.6524V10.8565C21.6524 10.1483 21.0759 9.57178 20.3676 9.57178Z" fill="#525252"/>
  <path d="M13.4004 16.7859C13.4004 18.1442 14.5056 19.2495 15.864 19.2495H21.6532V14.3223H15.864C14.5056 14.3223 13.4004 15.4275 13.4004 16.7859ZM17.2533 17.489H15.8471V16.0828H17.2533V17.489Z" fill="#525252"/>
</svg>