<svg xmlns="http://www.w3.org/2000/svg" width="25" height="24" viewBox="0 0 25 24" fill="none">
  <g clip-path="url(#clip0_1103_15024)">
    <path d="M19.8561 15.7215L18.5979 15.0847C18.9832 14.3234 19.2151 13.5172 19.2998 12.7051H16.8949C16.556 14.8254 14.7143 16.4507 12.5 16.4507C10.0459 16.4507 8.04929 14.4541 8.04929 12C8.04929 9.54588 10.0459 7.54929 12.5 7.54929C14.7143 7.54929 16.556 9.17464 16.8949 11.2949H19.3001C19.142 9.77244 18.4717 8.30944 17.3311 7.16889C16.0407 5.87845 14.3249 5.1678 12.5 5.1678C10.6751 5.1678 8.95934 5.87849 7.66889 7.16889C6.37845 8.45934 5.6678 10.1751 5.6678 12C5.6678 13.8249 6.37849 15.5407 7.66889 16.8311C9.76306 18.9253 12.9442 19.4343 15.5847 18.0979L16.2215 19.356C15.061 19.9434 13.7979 20.2434 12.5123 20.2434C12.0952 20.2434 11.6758 20.2119 11.2566 20.1483C9.50994 19.8832 7.9245 19.0809 6.6718 17.8282C5.11503 16.2714 4.25768 14.2016 4.25768 12C4.25768 9.79838 5.11503 7.72852 6.6718 6.1718C8.22857 4.61503 10.2984 3.75768 12.5 3.75768C14.7016 3.75768 16.7715 4.61503 18.3282 6.1718C19.5809 7.4245 20.3832 9.00994 20.6483 10.7566C20.6755 10.9361 20.6968 11.1156 20.7124 11.2949H24.5C24.3308 8.34935 23.1029 5.60376 20.9996 3.50043C18.8962 1.3971 16.1507 0.169214 13.2051 0V2.59927H11.7949V0C8.84935 0.169214 6.10376 1.3971 4.00043 3.50043C1.8971 5.60376 0.669214 8.34935 0.5 11.2949H3.09927V12.7051H0.5C0.669214 15.6507 1.8971 18.3962 4.00043 20.4996C6.10376 22.6029 8.84935 23.8308 11.7949 24V21.4007H13.2051V24C16.1507 23.8308 18.8962 22.6029 20.9996 20.4996C23.1029 18.3962 24.3308 15.6507 24.5 12.7051H20.7143C20.6259 13.75 20.3375 14.7702 19.8561 15.7215ZM18.5505 18.0505C18.358 18.2431 18.102 18.3491 17.8297 18.3491C17.5574 18.3491 17.3014 18.2431 17.1089 18.0505C16.9163 17.858 16.8103 17.602 16.8103 17.3297C16.8103 17.0574 16.9163 16.8014 17.1089 16.6089C17.3014 16.4163 17.5574 16.3103 17.8297 16.3103C18.102 16.3103 18.358 16.4163 18.5505 16.6089C18.7431 16.8014 18.8491 17.0574 18.8491 17.3297C18.8491 17.602 18.7431 17.858 18.5505 18.0505Z" fill="#525252"/>
    <path d="M12.4996 8.95941C10.823 8.95941 9.45898 10.3234 9.45898 12C9.45898 13.6766 10.823 15.0406 12.4996 15.0406C13.9335 15.0406 15.1388 14.0428 15.4576 12.7051H12.4996V11.2949H15.4576C15.1388 9.95721 13.9335 8.95941 12.4996 8.95941Z" fill="#525252"/>
  </g>
  <defs>
    <clipPath id="clip0_1103_15024">
      <rect width="24" height="24" fill="white" transform="translate(0.5)"/>
    </clipPath>
  </defs>
</svg>