<svg xmlns="http://www.w3.org/2000/svg" width="24" height="24" viewBox="0 0 24 24" fill="none">
  <path d="M21.1169 2.8125H18.9404L19.8032 3.68367C20.1969 4.08131 20.4138 4.60847 20.4138 5.16802V20.4844C20.4138 21.6475 19.4675 22.5938 18.3044 22.5938H5.83789V23.2969C5.83789 23.6852 6.1527 24 6.54102 24H21.1168C21.5052 24 21.82 23.6852 21.82 23.2969V3.51562C21.82 3.12731 21.5052 2.8125 21.1169 2.8125Z" fill="#525252"/>
  <path d="M14.5566 0.384583V4.45315H18.586L14.5566 0.384583Z" fill="#525252"/>
  <path d="M19.0075 20.4844V5.85938H13.8535C13.4652 5.85938 13.1504 5.54456 13.1504 5.15625V0H2.88477C2.49645 0 2.18164 0.314812 2.18164 0.703125V20.4844C2.18164 20.8727 2.49645 21.1875 2.88477 21.1875H18.3043C18.6927 21.1875 19.0075 20.8727 19.0075 20.4844ZM5.69727 2.8125H9.86919C10.2575 2.8125 10.5723 3.12731 10.5723 3.51562C10.5723 3.90394 10.2575 4.21875 9.86919 4.21875H5.69727C5.30895 4.21875 4.99414 3.90394 4.99414 3.51562C4.99414 3.12731 5.30895 2.8125 5.69727 2.8125ZM5.69727 5.71875H7.99414C8.38245 5.71875 8.69727 6.03356 8.69727 6.42188C8.69727 6.81019 8.38245 7.125 7.99414 7.125H5.69727C5.30895 7.125 4.99414 6.81019 4.99414 6.42188C4.99414 6.03356 5.30895 5.71875 5.69727 5.71875ZM4.82708 9.88153C5.03923 9.55622 5.47494 9.46463 5.80016 9.67669L6.48987 10.1265L8.63539 8.69625C8.86278 8.54466 9.15753 8.53856 9.39097 8.68064L12.3092 10.457L15.206 9.15548C15.5602 8.99634 15.9763 9.1545 16.1355 9.50869C16.2947 9.86292 16.1365 10.2791 15.7823 10.4382L12.548 11.8913C12.456 11.9326 12.3577 11.9531 12.2599 11.9531C12.1327 11.9531 12.006 11.9186 11.8942 11.8506L9.04259 10.1148L6.88419 11.5537C6.65014 11.7098 6.34564 11.7113 6.11005 11.5576L5.03197 10.8545C4.7067 10.6425 4.61497 10.2068 4.82708 9.88153ZM15.8691 18.375H5.32002C4.9317 18.375 4.61689 18.0602 4.61689 17.6719C4.61689 17.3143 4.88398 17.0198 5.22941 16.9752C5.22927 16.9695 5.22856 16.9639 5.22856 16.9581V14.9531C5.22856 14.5648 5.54338 14.25 5.93169 14.25C6.32 14.25 6.63481 14.5648 6.63481 14.9531V16.9581C6.63481 16.9617 6.63434 16.9651 6.6343 16.9687H8.33792V12.375C8.33792 11.9866 8.65273 11.6718 9.04105 11.6718C9.42936 11.6718 9.74417 11.9866 9.74417 12.375V16.9687H11.4478C11.4478 16.9651 11.4473 16.9617 11.4473 16.9581V15.179C11.4473 14.7907 11.7621 14.4759 12.1504 14.4759C12.5387 14.4759 12.8535 14.7907 12.8535 15.179V16.9581C12.8535 16.9617 12.8531 16.9651 12.853 16.9687H14.5572C14.5572 16.9651 14.5567 16.9617 14.5567 16.9581V13.6034C14.5567 13.215 14.8715 12.9002 15.2598 12.9002C15.6481 12.9002 15.9629 13.215 15.9629 13.6034V16.9581C15.9629 16.964 15.9622 16.9697 15.962 16.9755C16.3064 17.0211 16.5724 17.3151 16.5724 17.6718C16.5723 18.0602 16.2575 18.375 15.8691 18.375Z" fill="#525252"/>
</svg>