<svg xmlns="http://www.w3.org/2000/svg" width="20" height="21" viewBox="0 0 20 21" fill="none">
  <path d="M18.2672 14.4584C17.9922 16.6751 16.1755 18.4917 13.9589 18.7667C12.6172 18.9334 11.3672 18.5667 10.3922 17.8501C9.83387 17.4417 9.9672 16.5751 10.6339 16.3751C13.1422 15.6167 15.1172 13.6334 15.8839 11.1251C16.0839 10.4667 16.9505 10.3334 17.3589 10.8834C18.0672 11.8667 18.4339 13.1167 18.2672 14.4584Z" fill="#383838"/>
  <path d="M8.32435 2.16675C4.64935 2.16675 1.66602 5.15008 1.66602 8.82508C1.66602 12.5001 4.64935 15.4834 8.32435 15.4834C11.9993 15.4834 14.9827 12.5001 14.9827 8.82508C14.9743 5.15008 11.9993 2.16675 8.32435 2.16675ZM7.54102 7.89175L9.54935 8.59175C10.2743 8.85008 10.6243 9.35841 10.6243 10.1417C10.6243 11.0417 9.90768 11.7834 9.03268 11.7834H8.95768V11.8251C8.95768 12.1667 8.67435 12.4501 8.33268 12.4501C7.99102 12.4501 7.70768 12.1667 7.70768 11.8251V11.7751C6.78268 11.7334 6.04102 10.9584 6.04102 9.99175C6.04102 9.65008 6.32435 9.36675 6.66602 9.36675C7.00768 9.36675 7.29102 9.65008 7.29102 9.99175C7.29102 10.2917 7.50768 10.5334 7.77435 10.5334H9.02435C9.21602 10.5334 9.36602 10.3584 9.36602 10.1417C9.36602 9.85008 9.31602 9.83342 9.12435 9.76675L7.11602 9.06675C6.39935 8.81675 6.04102 8.30841 6.04102 7.51675C6.04102 6.61675 6.75768 5.87508 7.63268 5.87508H7.70768V5.84175C7.70768 5.50008 7.99102 5.21675 8.33268 5.21675C8.67435 5.21675 8.95768 5.50008 8.95768 5.84175V5.89175C9.88268 5.93341 10.6243 6.70841 10.6243 7.67508C10.6243 8.01675 10.341 8.30008 9.99935 8.30008C9.65768 8.30008 9.37435 8.01675 9.37435 7.67508C9.37435 7.37508 9.15768 7.13341 8.89102 7.13341H7.64102C7.44935 7.13341 7.29935 7.30842 7.29935 7.52508C7.29102 7.80842 7.34102 7.82508 7.54102 7.89175Z" fill="#383838"/>
</svg>