<svg xmlns="http://www.w3.org/2000/svg" width="20" height="20" viewBox="0 0 20 20" fill="none">
  <path d="M9.58268 17.5001C13.9549 17.5001 17.4993 13.9557 17.4993 9.58341C17.4993 5.21116 13.9549 1.66675 9.58268 1.66675C5.21043 1.66675 1.66602 5.21116 1.66602 9.58341C1.66602 13.9557 5.21043 17.5001 9.58268 17.5001Z" fill="#1B1B1B"/>
  <path d="M17.7501 18.3335C17.6001 18.3335 17.4501 18.2751 17.3418 18.1668L15.7918 16.6168C15.5668 16.3918 15.5668 16.0251 15.7918 15.7918C16.0168 15.5668 16.3835 15.5668 16.6168 15.7918L18.1668 17.3418C18.3918 17.5668 18.3918 17.9335 18.1668 18.1668C18.0501 18.2751 17.9001 18.3335 17.7501 18.3335Z" fill="#1B1B1B"/>
</svg>