<svg xmlns="http://www.w3.org/2000/svg" width="24" height="24" viewBox="0 0 24 24" fill="none">
  <g clip-path="url(#clip0_1103_16025)">
    <path d="M7.32504 7.32426C7.28209 7.66704 7.25977 8.01615 7.25977 8.37042C7.25977 8.7472 7.28523 9.11807 7.33372 9.48177H14.0454C12.5526 8.1029 10.5587 7.25903 8.37116 7.25903C8.01693 7.25903 7.66782 7.28135 7.32504 7.32426Z" fill="white" fill-opacity="0.6"/>
    <path d="M15.265 10.8885H7.64648C7.89923 11.688 8.26912 12.4358 8.73569 13.112H16.354C16.1013 12.3126 15.7315 11.5648 15.265 10.8885Z" fill="white" fill-opacity="0.6"/>
    <path d="M8.37043 24C12.1189 24 15.2997 21.5232 16.3625 18.1203C16.1205 18.1383 15.876 18.1477 15.6295 18.1477C10.2383 18.1477 5.85228 13.7617 5.85228 8.37047C5.85228 8.12391 5.86166 7.87946 5.87971 7.63745C2.47675 8.70021 0 11.881 0 15.6295C0 20.245 3.75498 24 8.37043 24Z" fill="white" fill-opacity="0.6"/>
    <path d="M16.6661 14.5188H9.95508C11.4478 15.8972 13.4414 16.7409 15.6286 16.7409C15.9828 16.7409 16.3319 16.7186 16.6747 16.6756C16.7176 16.3328 16.7399 15.9837 16.7399 15.6294C16.7399 15.2529 16.7145 14.8823 16.6661 14.5188Z" fill="white" fill-opacity="0.6"/>
    <path d="M15.6288 0C11.8803 0 8.69948 2.47675 7.63672 5.87971C7.87873 5.8617 8.12318 5.85233 8.36974 5.85233C13.7609 5.85233 18.1469 10.2383 18.1469 15.6295C18.1469 15.8761 18.1376 16.1205 18.1195 16.3625C21.5225 15.2998 23.9992 12.1189 23.9992 8.37048C23.9993 3.75498 20.2443 0 15.6288 0Z" fill="white" fill-opacity="0.6"/>
  </g>
  <defs>
    <clipPath id="clip0_1103_16025">
      <rect width="24" height="24" fill="white"/>
    </clipPath>
  </defs>
</svg>