<svg xmlns="http://www.w3.org/2000/svg" width="24" height="24" viewBox="0 0 24 24" fill="none">
  <path d="M11.9996 5.61953C10.4505 5.61953 9.18985 6.88018 9.18985 8.4293C9.18985 9.97842 10.4505 11.2391 11.9996 11.2391C13.5487 11.2391 14.8094 9.97842 14.8094 8.4293C14.8094 6.88018 13.5487 5.61953 11.9996 5.61953ZM11.9996 5.61953C10.4505 5.61953 9.18985 6.88018 9.18985 8.4293C9.18985 9.97842 10.4505 11.2391 11.9996 11.2391C13.5487 11.2391 14.8094 9.97842 14.8094 8.4293C14.8094 6.88018 13.5487 5.61953 11.9996 5.61953ZM11.9996 0C7.35179 0 3.57031 3.78148 3.57031 8.4293C3.57031 14.2371 11.1384 23.3623 11.4606 23.7481C11.7416 24.0844 12.2581 24.0834 12.5386 23.7481C12.8608 23.3623 20.4289 14.2371 20.4289 8.4293C20.4289 3.78148 16.6474 0 11.9996 0ZM16.9167 9.13174H16.1553C15.8588 10.8939 14.4642 12.2885 12.7021 12.5849V13.3464C12.7021 13.7341 12.3874 14.0488 11.9996 14.0488C11.6119 14.0488 11.2972 13.7341 11.2972 13.3464V12.5849C9.53498 12.2885 8.1404 10.8939 7.84397 9.13174H7.08252C6.69477 9.13174 6.38008 8.81705 6.38008 8.4293C6.38008 8.04155 6.69477 7.72686 7.08252 7.72686H7.84397C8.1404 5.96467 9.53498 4.57009 11.2972 4.27366V3.51221C11.2972 3.12446 11.6119 2.80977 11.9996 2.80977C12.3874 2.80977 12.7021 3.12446 12.7021 3.51221V4.27366C14.4642 4.57009 15.8588 5.96467 16.1553 7.72686H16.9167C17.3045 7.72686 17.6191 8.04155 17.6191 8.4293C17.6191 8.81705 17.3045 9.13174 16.9167 9.13174ZM11.9996 5.61953C10.4505 5.61953 9.18985 6.88018 9.18985 8.4293C9.18985 9.97842 10.4505 11.2391 11.9996 11.2391C13.5487 11.2391 14.8094 9.97842 14.8094 8.4293C14.8094 6.88018 13.5487 5.61953 11.9996 5.61953ZM11.9996 5.61953C10.4505 5.61953 9.18985 6.88018 9.18985 8.4293C9.18985 9.97842 10.4505 11.2391 11.9996 11.2391C13.5487 11.2391 14.8094 9.97842 14.8094 8.4293C14.8094 6.88018 13.5487 5.61953 11.9996 5.61953ZM11.9996 5.61953C10.4505 5.61953 9.18985 6.88018 9.18985 8.4293C9.18985 9.97842 10.4505 11.2391 11.9996 11.2391C13.5487 11.2391 14.8094 9.97842 14.8094 8.4293C14.8094 6.88018 13.5487 5.61953 11.9996 5.61953Z" fill="white" fill-opacity="0.6"/>
</svg>