<svg xmlns="http://www.w3.org/2000/svg" width="24" height="24" viewBox="0 0 24 24" fill="none">
  <g clip-path="url(#clip0_1103_15661)">
    <path d="M23.7939 5.47685L18.522 0.205008C18.2601 -0.0673828 17.7894 -0.0673359 17.5276 0.205008L12.2558 5.47685C12.0547 5.67795 11.9945 5.98038 12.1033 6.24312C12.2122 6.50585 12.4686 6.67718 12.7529 6.67718H15.0623V23.2959C15.0623 23.6842 15.3771 23.999 15.7654 23.999H20.2842C20.6725 23.999 20.9873 23.6842 20.9873 23.2959V6.67718H23.2967C23.5811 6.67718 23.8375 6.50585 23.9463 6.24312C24.0551 5.98038 23.995 5.67799 23.7939 5.47685Z" fill="white" fill-opacity="0.6"/>
    <path d="M12.7531 9.78979H8.23438C7.84606 9.78979 7.53125 10.1046 7.53125 10.4929V23.296C7.53125 23.6843 7.84606 23.9992 8.23438 23.9992H12.7531C13.1414 23.9992 13.4562 23.6843 13.4562 23.296V10.4929C13.4562 10.1046 13.1414 9.78979 12.7531 9.78979Z" fill="white" fill-opacity="0.6"/>
    <path d="M5.22188 15.8147H0.703125C0.314812 15.8147 0 16.1295 0 16.5178V23.2959C0 23.6843 0.314812 23.9991 0.703125 23.9991H5.22188C5.61019 23.9991 5.925 23.6843 5.925 23.2959V16.5178C5.925 16.1295 5.61019 15.8147 5.22188 15.8147Z" fill="white" fill-opacity="0.6"/>
  </g>
  <defs>
    <clipPath id="clip0_1103_15661">
      <rect width="24" height="24" fill="white"/>
    </clipPath>
  </defs>
</svg>