<svg xmlns="http://www.w3.org/2000/svg" width="24" height="24" viewBox="0 0 24 24" fill="none">
  <g clip-path="url(#clip0_1103_15707)">
    <path d="M12.0064 6.83677C12.3641 6.98888 12.7104 7.16138 13.0448 7.35338C13.3035 7.37269 13.6634 7.35661 13.6633 7.01072C13.6633 7.01077 13.6485 0.341533 13.6485 0.341533C13.648 0.122954 13.4464 -0.0390456 13.2341 0.00825127C10.0903 0.708798 7.58002 3.1013 6.69629 6.18666C8.48129 5.90302 10.3483 6.12652 12.0064 6.83677Z" fill="white" fill-opacity="0.6"/>
    <path d="M8.20199 7.5238C-1.56119 7.45799 -3.0047 21.9686 6.40494 23.9743C6.5676 24.0109 6.72285 23.8875 6.72242 23.7194L6.70817 17.3185C6.70785 17.1747 6.59178 17.0583 6.44872 17.0583H5.5686C5.28547 17.0583 5.11447 16.7434 5.26761 16.504C9.16321 10.7876 7.27199 10.7893 11.1683 16.5039C11.3215 16.7433 11.1505 17.0582 10.8674 17.0582H9.87327C9.72974 17.0582 9.61349 17.1754 9.61382 17.3196L9.62807 23.7391C9.62844 23.9037 9.77886 24.0283 9.93908 23.9943C19.4493 22.0703 18.0274 7.4398 8.20199 7.5238Z" fill="white" fill-opacity="0.6"/>
    <path d="M23.936 8.49986C23.8736 4.37261 20.9971 0.931561 17.15 0.0295452C16.9367 -0.0204704 16.7327 0.143498 16.7332 0.363717L16.748 7.01233C16.7484 7.20081 16.9005 7.35344 17.088 7.35344H18.0309C18.2999 7.35344 18.4624 7.65269 18.3169 7.88017L16.5029 10.7162C17.6581 12.5853 18.1466 14.8475 17.8776 17.0342C21.4264 15.8582 23.9959 12.4618 23.936 8.49986Z" fill="white" fill-opacity="0.6"/>
  </g>
  <defs>
    <clipPath id="clip0_1103_15707">
      <rect width="24" height="24" fill="white"/>
    </clipPath>
  </defs>
</svg>