<svg xmlns="http://www.w3.org/2000/svg" width="24" height="24" viewBox="0 0 24 24" fill="none">
  <path d="M22.4231 3.3589C22.38 3.04946 22.1574 2.79493 21.8564 2.71127L12.2104 0.0287059C12.0729 -0.00956863 11.9277 -0.00956863 11.79 0.0287059L2.14402 2.71127C1.84305 2.79493 1.62041 3.04936 1.57733 3.3589C1.52138 3.7612 0.245041 13.2667 3.51877 17.9953C6.78862 22.7184 11.6124 23.9287 11.8161 23.978C11.8766 23.9926 11.9383 23.9998 12.0002 23.9998C12.0621 23.9998 12.1238 23.9925 12.1844 23.978C12.3882 23.9287 17.2119 22.7184 20.4817 17.9953C23.7554 13.2668 22.4791 3.76131 22.4231 3.3589ZM18.2207 8.90829L11.6411 15.4878C11.488 15.6409 11.2872 15.7176 11.0866 15.7176C10.8859 15.7176 10.6851 15.641 10.532 15.4878L6.46392 11.4198C6.31678 11.2727 6.23417 11.0732 6.23417 10.8652C6.23417 10.6572 6.31688 10.4577 6.46392 10.3106L7.27166 9.5029C7.57796 9.19671 8.07458 9.1966 8.38078 9.5029L11.0866 12.2087L16.3038 6.99132C16.4508 6.84418 16.6504 6.76157 16.8584 6.76157C17.0664 6.76157 17.2659 6.84418 17.4129 6.99132L18.2207 7.79906C18.527 8.10536 18.527 8.60199 18.2207 8.90829Z" fill="white" fill-opacity="0.6"/>
</svg>