<svg xmlns="http://www.w3.org/2000/svg" width="25" height="24" viewBox="0 0 25 24" fill="none">
  <g clip-path="url(#clip0_1103_15692)">
    <path d="M12.5 0C5.87204 0 0.5 5.37256 0.5 12C0.5 18.6274 5.87204 24 12.5 24C19.128 24 24.5 18.6269 24.5 12C24.5 5.37308 19.1274 0 12.5 0ZM13.2264 17.3454V18.7345C13.2264 18.9512 13.0577 19.1089 12.8405 19.1089H11.9146C11.6974 19.1089 11.5224 18.9512 11.5224 18.7345V17.4676C10.6702 17.429 9.81059 17.2472 9.15991 16.9997C8.80741 16.866 8.61106 16.4884 8.70454 16.1229L8.85546 15.5349C8.9082 15.3286 9.04606 15.1563 9.23458 15.0597C9.4231 14.9615 9.64452 14.9516 9.84244 15.0273C10.4623 15.267 11.1945 15.4414 11.9762 15.4414C12.9716 15.4414 13.6531 15.0571 13.6531 14.3583C13.6531 13.6946 13.0943 13.2753 11.8013 12.8382C9.93227 12.2094 8.65231 11.3363 8.65231 9.64167C8.65231 8.10479 9.74009 6.89952 11.5997 6.5324V5.2655C11.5997 5.04878 11.7851 4.85452 12.0023 4.85452H12.9282C13.1455 4.85452 13.3047 5.04878 13.3047 5.2655V6.40968C14.1178 6.44467 14.7048 6.5653 15.1957 6.7251C15.567 6.84625 15.7863 7.2353 15.6887 7.61443L15.556 8.14082C15.5043 8.34136 15.3717 8.5116 15.1899 8.60977C15.0082 8.70795 14.7936 8.72571 14.5972 8.65834C14.1512 8.50533 13.5695 8.36642 12.8321 8.36642C11.6968 8.36642 11.3297 8.85574 11.3297 9.34505C11.3297 9.92158 11.9412 10.2882 13.4259 10.8475C15.5043 11.5812 16.3393 12.5421 16.3393 14.1134C16.3388 15.668 15.2406 16.9966 13.2264 17.3454Z" fill="white" fill-opacity="0.6"/>
  </g>
  <defs>
    <clipPath id="clip0_1103_15692">
      <rect width="24" height="24" fill="white" transform="translate(0.5)"/>
    </clipPath>
  </defs>
</svg>