<svg xmlns="http://www.w3.org/2000/svg" width="25" height="24" viewBox="0 0 25 24" fill="none">
  <path d="M13.2031 11.7966V17.1532L17.8421 14.4749V9.11829L13.2031 11.7966Z" fill="white" fill-opacity="0.6"/>
  <path d="M7.86133 7.90039L12.5003 10.5787L17.1393 7.90039L12.5003 5.22205L7.86133 7.90039Z" fill="white" fill-opacity="0.6"/>
  <path d="M11.7972 11.7966L7.1582 9.11829V14.4749L11.7972 17.1532V11.7966Z" fill="white" fill-opacity="0.6"/>
  <path d="M21.6749 4.02909C21.1693 4.02909 20.7061 4.21317 20.348 4.51734L12.5237 0L4.67127 4.53361C4.31062 4.21978 3.84009 4.02909 3.32559 4.02909C2.19346 4.02909 1.27246 4.95009 1.27246 6.08222C1.27246 6.98442 1.8577 7.75205 2.6683 8.02678V17.07L10.4412 21.5577C10.4169 21.6838 10.4038 21.8137 10.4038 21.9468C10.4038 23.0789 11.3248 23.9999 12.4569 23.9999C13.589 23.9999 14.51 23.0789 14.51 21.9468C14.51 21.8383 14.5013 21.7317 14.485 21.6276L22.3791 17.07V8.01089C23.1654 7.72289 23.728 6.96703 23.728 6.08222C23.728 4.95014 22.807 4.02909 21.6749 4.02909ZM20.9707 16.2569L13.8006 20.3966C13.4401 20.0838 12.9704 19.8938 12.4568 19.8938C11.9688 19.8938 11.5202 20.0653 11.1674 20.3507L4.07676 16.2569V7.99237C4.83824 7.69186 5.37866 6.94922 5.37866 6.08222C5.37866 5.97455 5.37023 5.86884 5.3542 5.76562L12.5237 1.62628L19.6506 5.74101C19.632 5.85206 19.6218 5.96592 19.6218 6.08222C19.6218 6.96703 20.1844 7.72289 20.9707 8.01089V16.2569Z" fill="white" fill-opacity="0.6"/>
</svg>