<svg xmlns="http://www.w3.org/2000/svg" width="24" height="24" viewBox="0 0 24 24" fill="none">
  <g clip-path="url(#clip0_1103_15872)">
    <path d="M18.375 12C15.2734 12 12.75 14.5234 12.75 17.625C12.75 20.7266 15.2734 23.25 18.375 23.25C21.4766 23.25 24 20.7266 24 17.625C24 14.5234 21.4766 12 18.375 12ZM21.6846 16.7159L18.169 20.2315C18.0316 20.3688 17.8517 20.4375 17.6719 20.4375C17.492 20.4375 17.3121 20.3688 17.1748 20.2315L15.0654 18.1221C14.7907 17.8475 14.7907 17.4025 15.0654 17.1278C15.34 16.8532 15.785 16.8532 16.0597 17.1278L17.6719 18.7401L20.6904 15.7216C20.965 15.447 21.41 15.447 21.6847 15.7216C21.9593 15.9962 21.9593 16.4412 21.6846 16.7159Z" fill="white" fill-opacity="0.6"/>
    <path d="M19.0781 0.75H2.10938C0.946219 0.75 0 1.69622 0 2.85938V3.5625H21.1875V2.85938C21.1875 1.69622 20.2413 0.75 19.0781 0.75Z" fill="white" fill-opacity="0.6"/>
    <path d="M21.1875 4.96875H0V6.375H21.1875V4.96875Z" fill="white" fill-opacity="0.6"/>
    <path d="M0 7.78125V15.5156C0 16.6788 0.946219 17.625 2.10938 17.625H11.3438C11.3438 13.7482 14.4982 10.5938 18.375 10.5938C19.376 10.5938 20.3246 10.811 21.1875 11.1898V7.78125H0ZM7.82812 14.8125H3.51562C3.12698 14.8125 2.8125 14.498 2.8125 14.1094C2.8125 13.7207 3.12698 13.4062 3.51562 13.4062H7.82812C8.21677 13.4062 8.53125 13.7207 8.53125 14.1094C8.53125 14.498 8.21677 14.8125 7.82812 14.8125ZM7.82812 12H3.51562C3.12698 12 2.8125 11.6855 2.8125 11.2969C2.8125 10.9082 3.12698 10.5938 3.51562 10.5938H7.82812C8.21677 10.5938 8.53125 10.9082 8.53125 11.2969C8.53125 11.6855 8.21677 12 7.82812 12Z" fill="white" fill-opacity="0.6"/>
  </g>
  <defs>
    <clipPath id="clip0_1103_15872">
      <rect width="24" height="24" fill="white"/>
    </clipPath>
  </defs>
</svg>