<svg xmlns="http://www.w3.org/2000/svg" width="24" height="24" viewBox="0 0 24 24" fill="none">
  <g clip-path="url(#clip0_1103_15814)">
    <path d="M13.5992 20.4271C14.0005 20.3183 14.2651 19.9929 14.2897 19.5779C14.3144 19.1629 14.0902 18.8084 13.7046 18.6529L9.99028 17.1544C9.22434 16.8454 8.73271 16.169 8.6752 15.345C8.61773 14.5211 9.01064 13.783 9.72628 13.3706L10.9734 12.6519C11.7896 12.1815 12.1967 11.2808 12.0104 10.3574C12.0084 10.3472 11.2854 5.70361 11.2844 5.69531L9.91546 7.65497L7.65248 8.75813C7.51054 8.82736 7.39603 8.9423 7.32735 9.08447L5.00362 13.8982L2.15578 15.6267C1.9986 15.7221 1.88507 15.8752 1.83946 16.0532L0.0278847 23.1223C-0.0260684 23.3327 0.0203379 23.5563 0.15351 23.7279C0.286729 23.8995 0.491807 24 0.709072 24L2.33329 23.9998L13.5706 20.4356C13.5801 20.4326 13.5896 20.4298 13.5992 20.4271Z" fill="white" fill-opacity="0.6"/>
    <path d="M23.9398 23.0235L21.0412 16.0987C20.9901 15.9766 20.9056 15.8714 20.7974 15.7952L17.7557 13.6534L16.5501 10.5472C16.5239 10.4797 16.4873 10.4167 16.4419 10.3603L12.7124 5.73633L13.3918 10.0955C13.6915 11.6155 13.019 13.0958 11.6751 13.8703L10.428 14.589C10.1823 14.7306 10.0579 14.9643 10.0776 15.2471C10.0974 15.53 10.2531 15.7442 10.516 15.8502L14.2304 17.3487C15.1797 17.7317 15.7538 18.6395 15.6931 19.6613C15.6327 20.6778 14.9618 21.5078 13.9823 21.7801L6.98535 23.9994L23.2912 23.998C23.5265 23.998 23.7462 23.8803 23.8765 23.6844C24.0068 23.4885 24.0306 23.2405 23.9398 23.0235Z" fill="white" fill-opacity="0.6"/>
    <path d="M12.6982 4.21875H15.2764C15.5098 4.21875 15.7279 4.10302 15.8586 3.9098C15.9895 3.71658 16.0159 3.47109 15.9292 3.25448L15.4711 2.10938L15.9292 0.964266C16.0159 0.747609 15.9894 0.502125 15.8586 0.308953C15.7279 0.115734 15.5097 0 15.2764 0H11.9951C11.6068 0 11.292 0.314812 11.292 0.703125V4.90791H12.6982V4.21875Z" fill="white" fill-opacity="0.6"/>
  </g>
  <defs>
    <clipPath id="clip0_1103_15814">
      <rect width="24" height="24" fill="white"/>
    </clipPath>
  </defs>
</svg>