<svg xmlns="http://www.w3.org/2000/svg" width="22" height="22" viewBox="0 0 22 22" fill="none">
  <path d="M10.9624 0C13.7571 0 15.1955 1.55688 15.5159 1.90189C16.155 2.65075 16.6945 3.50207 16.8543 5.22242C16.9541 6.41629 16.8747 7.69091 16.8148 8.39916V8.60077C16.8324 8.71793 16.9046 8.76383 17.0547 8.76383C17.0943 8.76383 17.1336 8.76297 17.1732 8.74308C17.313 8.7026 17.4933 8.64169 17.7129 8.56074C18.0125 8.43932 18.372 8.29779 18.7515 8.21683C18.8513 8.17635 18.9515 8.17681 19.0513 8.17681C19.3908 8.17685 19.6907 8.31901 19.8105 8.66303C19.9897 9.14843 19.7492 9.53329 19.1903 9.93787C19.0902 10.0189 18.8911 10.1606 18.652 10.2818C18.1727 10.6056 17.5328 11.0098 17.3531 11.192C17.0737 11.4549 17.0938 11.6578 17.1337 11.9005V11.9406C17.1736 12.1632 17.7737 15.0776 21.6082 16.9599C21.9077 17.0814 22.3059 17.3256 21.6272 17.71C21.0482 18.0336 20.5682 18.1751 20.1688 18.2763C19.8297 18.3572 19.5497 18.4376 19.3102 18.5994C19.0508 18.7613 19.0313 19.0252 18.9913 19.268C18.9514 19.4905 18.9316 19.6728 18.7719 19.7942C18.5922 19.9156 18.2525 19.9356 17.7934 19.9558C17.1942 19.9963 16.4346 20.0164 15.5159 20.2997C15.0768 20.4616 14.6777 20.7048 14.2784 20.9475C13.4797 21.4534 12.5807 21.9999 11.0034 22C9.44563 22 8.54619 21.4535 7.74734 20.9475C7.34805 20.6845 6.94856 20.4423 6.48939 20.2804C5.59069 19.9971 4.81106 19.9553 4.21192 19.935C3.75298 19.9148 3.43296 19.8948 3.23336 19.7735C3.07418 19.6721 3.05384 19.4696 3.01395 19.2472C2.97407 19.0046 2.95416 18.742 2.69507 18.5801C2.45555 18.4183 2.15579 18.3374 1.83645 18.2362C1.43703 18.135 0.957271 18.0131 0.378108 17.6892C-0.300876 17.3047 0.0984559 17.0813 0.318136 16.9599C4.17247 15.0776 4.77119 12.1632 4.79116 11.9406V11.9005C4.8311 11.6577 4.85135 11.4551 4.57175 11.192C4.39163 11.0097 3.77323 10.6054 3.27431 10.2818C3.05463 10.1199 2.85439 9.99859 2.73457 9.93787C2.17542 9.53312 1.93617 9.1482 2.11583 8.64227C2.23566 8.2982 2.55545 8.17681 2.87499 8.17681C2.97477 8.17686 3.09507 8.19662 3.17485 8.21683C3.53384 8.29775 3.89276 8.43944 4.21192 8.56074C4.43156 8.66192 4.61188 8.72335 4.75167 8.76383C4.79155 8.78403 4.85154 8.7831 4.87161 8.7831C5.07116 8.7831 5.13132 8.68275 5.1115 8.48069C5.1115 8.42003 5.11094 8.35902 5.09102 8.29836C5.05109 7.59013 4.9922 6.35564 5.07201 5.22242C5.23176 3.52252 5.76997 2.65121 6.40894 1.92265C6.72846 1.55836 8.18674 0.000174767 10.9624 0Z" fill="white"/>
</svg>