<svg xmlns="http://www.w3.org/2000/svg" width="24" height="25" viewBox="0 0 24 25" fill="none">
  <g clip-path="url(#clip0_1103_17355)">
    <path d="M13.6954 2.99642L10.3093 0.5L4.28906 8.66562H5.84241L13.6954 2.99642Z" fill="#525252"/>
    <path d="M19.4443 8.66561L15.6078 3.35077L8.24609 8.66561H19.4443Z" fill="#525252"/>
    <path d="M20.3696 10.0718H6.29664H6.27977H2.34766V24.5H20.3696C21.0778 24.5 21.6543 23.9239 21.6543 23.2157V21.1557H15.8651C13.7315 21.1557 11.9954 19.42 11.9954 17.2859C11.9954 15.1523 13.7315 13.4161 15.8651 13.4161H21.6543V11.3565C21.6543 10.6483 21.0778 10.0718 20.3696 10.0718Z" fill="#525252"/>
    <path d="M13.4023 17.2859C13.4023 18.6442 14.5076 19.7495 15.8659 19.7495H21.6551V14.8223H15.8659C14.5076 14.8223 13.4023 15.9275 13.4023 17.2859ZM17.2552 17.989H15.8491V16.5828H17.2552V17.989Z" fill="#525252"/>
  </g>
  <defs>
    <clipPath id="clip0_1103_17355">
      <rect width="24" height="24" fill="white" transform="translate(0 0.5)"/>
    </clipPath>
  </defs>
</svg>